<?xml version="1.0"?>
<svg xmlns="http://www.w3.org/2000/svg" id="Capa_1" enable-background="new 0 0 511.999 511.999" height="512px" viewBox="0 0 511.999 511.999" width="512px"><g><g><path d="m15.354 361.482h7.895v79.896c0 8.467 6.888 15.354 15.354 15.354h30.79c8.466 0 15.354-6.888 15.354-15.354v-79.896h153.753c4.143 0 7.5-3.357 7.5-7.5s-3.357-7.5-7.5-7.5c-58.736 0-219.333 0-223.146 0-.195 0-.354-.159-.354-.354v-30.789c0-.195.158-.354.354-.354h481.292c.195 0 .354.159.354.354v30.789c0 .195-.158.354-.354.354-3.471 0-149.007 0-223.146 0-4.143 0-7.5 3.357-7.5 7.5s3.357 7.5 7.5 7.5h153.754v79.896c0 8.467 6.888 15.354 15.354 15.354h30.79c8.466 0 15.354-6.888 15.354-15.354v-22.271c0-4.143-3.357-7.5-7.5-7.5s-7.5 3.357-7.5 7.5v22.271c0 .195-.158.354-.354.354h-30.79c-.195 0-.354-.159-.354-.354v-79.896h31.497v22.625c0 4.143 3.357 7.5 7.5 7.5s7.5-3.357 7.5-7.5v-22.625h7.896c8.466 0 15.354-6.888 15.354-15.354v-30.789c0-8.467-6.888-15.354-15.354-15.354h-3.471-1.686v-37.275h1.686c4.143 0 7.5-3.357 7.5-7.5s-3.357-7.5-7.5-7.5h-1.686v-37.275h1.686c4.143 0 7.5-3.357 7.5-7.5s-3.357-7.5-7.5-7.5h-1.686v-37.274h1.686c4.143 0 7.5-3.357 7.5-7.5s-3.357-7.5-7.5-7.5h-9.186-190.275c-18.548 0-33.638 15.089-33.638 33.637 0 10.544 4.88 19.966 12.496 26.138-7.616 6.172-12.496 15.594-12.496 26.138s4.88 19.966 12.496 26.138c-7.616 6.172-12.496 15.594-12.496 26.138 0 6.889 2.085 13.299 5.652 18.638h-22.57c1.721-3.108 2.328-6.68 1.702-10.228-.613-3.474-38.273-217.059-39.076-221.612-1.493-8.459-9.586-14.136-18.048-12.638h-.001l-39.359 6.94c-.915.161-1.799.412-2.654.723-2.804-2.704-6.608-4.377-10.802-4.377h-39.966c-2.96 0-5.72.845-8.08 2.284-2.36-1.439-5.12-2.284-8.08-2.284h-39.967c-8.591 0-15.58 6.989-15.58 15.58v225.031c0 .196.022.386.029.58h-7.924c-8.465-.003-15.353 6.884-15.353 15.351v30.789c0 8.467 6.888 15.355 15.354 15.355zm22.894 0h31.498v79.896c0 .195-.158.354-.354.354h-30.79c-.195 0-.354-.159-.354-.354zm255.467-203.324h182.774v37.274h-182.774c-10.277 0-18.638-8.36-18.638-18.638 0-10.275 8.361-18.636 18.638-18.636zm0 52.275h182.774v37.275h-182.774c-10.277 0-18.638-8.36-18.638-18.638s8.361-18.637 18.638-18.637zm0 52.275h182.774v37.275h-182.774c-10.277 0-18.638-8.36-18.638-18.638s8.361-18.637 18.638-18.637zm-63.625 29.654c.054.322-.152.614-.472.672l-39.357 6.94c-.355.048-.619-.17-.673-.472l-9.186-52.093 40.502-7.141zm-27.286-154.746 15.495 87.88-40.501 7.142c-1.857-10.529-13.9-78.83-15.496-87.88zm-51.822-60.398 39.359-6.94c.32-.053.616.158.672.472l9.186 52.094-40.502 7.141-9.186-52.095c-.055-.315.157-.616.471-.672zm-.48 222.186c0-6.307 0-131.027 0-135.187.571 3.236 22.727 128.888 23.94 135.767h-23.969c.007-.194.029-.385.029-.58zm-56.127-225.032c0-.32.26-.58.58-.58h39.966c.32 0 .581.26.581.58v22.045h-41.127zm0 37.045h41.127v15.853h-41.127zm0 30.853h41.127v89.236h-41.127zm0 104.236h41.127v15.853h-41.127zm0 30.853h41.127v22.045c0 .32-.261.58-.581.58h-39.966c-.32 0-.58-.26-.58-.58zm-56.127-202.987c0-.32.26-.58.58-.58h39.967c.32 0 .58.26.58.58v52.897h-41.127zm0 67.898h41.127v89.236h-41.127zm0 104.236h41.127v52.897c0 .32-.26.58-.58.58h-39.967c-.32 0-.58-.26-.58-.58z" data-original="#000000" class="active-path" data-old_color="#000000" fill="#374957"/></g></g> </svg>
