<svg xmlns="http://www.w3.org/2000/svg" xmlns:xlink="http://www.w3.org/1999/xlink" style="isolation:isolate" viewBox="0 0 810 520" width="810pt" height="520pt"><defs><clipPath id="_clipPath_i5ITLF1mjd6SULFyeuY94pmILqaRjPLb"><rect width="810" height="520"/></clipPath></defs><g clip-path="url(#_clipPath_i5ITLF1mjd6SULFyeuY94pmILqaRjPLb)"><g><clipPath id="_clipPath_hGLP4NbzfI4FL4PC9W7lJNMuRrJAfNu0"><path d=" M 965 -387 L 965 735 L -157 735 L -157 -387 L 965 -387 Z " fill="rgb(255,255,255)"/></clipPath><g clip-path="url(#_clipPath_hGLP4NbzfI4FL4PC9W7lJNMuRrJAfNu0)"><path d=" M 836.204 44.842 L -58.63 44.842 L -58.63 570.777 L 836.204 570.777 L 836.204 44.842 Z " fill="none"/><path d=" M 805.976 145.443 L 806.548 176.208 C 807.392 188.615 798.313 198.861 788.105 204.872 L 435.894 412.275 L 312.811 484.753 C 251.369 519.765 245.397 520.618 181.009 485.315 L 17.034 387.534 C 7.354 381.761 1.475 371.275 1.599 360.005 L 1.959 327.373 L 214.835 459.221 C 239.269 473.739 257.589 469.403 279.529 456.483 L 805.976 145.443 Z " fill="rgb(216,216,216)"/><path d=" M 12.453 351.383 L 187.708 454.885 C 242.316 485.655 258.352 478.288 306.483 450.3 L 795.507 165.202 C 809.522 157.031 809.45 136.756 795.376 128.686 L 603.82 18.837 C 579.083 4.286 547.592 4.239 520.697 19.749 L 12.389 313.27 C -2.295 321.748 -2.259 342.954 12.453 351.383 Z " fill="rgb(246,244,244)"/><path d=" M 18.041 348.229 L 189.664 447.614 C 247.003 477.404 248.403 476.704 310.773 441.621 L 789.047 162.44 C 800.327 155.081 803.178 137.521 789.444 129.703 L 602.521 23.285 C 578.382 9.188 547.652 9.143 521.408 24.168 L 25.394 308.523 C 3.168 320.136 1.397 336.661 18.041 348.229 Z " fill="rgb(250,255,255)"/><path d=" M 714.663 187.933 L 487.339 56.212 L 81.554 289.91 L 306.014 419.88 L 714.663 187.933 Z " fill="rgb(200,212,234)"/><linearGradient id="_lgradient_2" x1="0" y1="0" x2="1" y2="0" gradientTransform="matrix(-102.748,0,0,102.748,195.253,377.271)" gradientUnits="userSpaceOnUse"><stop offset="0%" stop-opacity="1" style="stop-color:rgb(234,130,110)"/><stop offset="44.897999999999996%" stop-opacity="1" style="stop-color:rgb(250,148,139)"/><stop offset="100%" stop-opacity="1" style="stop-color:rgb(241,142,158)"/></linearGradient><path d=" M 177.092 407.192 L 193.817 397.5 C 195.762 396.373 195.723 393.553 193.748 392.479 L 116.205 347.452 C 114.302 346.418 112.02 346.355 110.062 347.283 L 94.149 356.693 C 92.059 357.685 91.934 360.613 93.932 361.78 L 171.711 407.184 C 173.373 408.153 175.428 408.157 177.092 407.192 Z " fill="url(#_lgradient_2)"/><linearGradient id="_lgradient_3" x1="0" y1="0" x2="1" y2="0" gradientTransform="matrix(-102.85,0,0,102.85,195.304,377.272)" gradientUnits="userSpaceOnUse"><stop offset="0%" stop-opacity="1" style="stop-color:rgb(154,90,84)"/><stop offset="29.5819%" stop-opacity="1" style="stop-color:rgb(250,148,139)"/><stop offset="55.337199999999996%" stop-opacity="1" style="stop-color:rgb(250,148,139)"/><stop offset="83.243%" stop-opacity="1" style="stop-color:rgb(142,83,77)"/><stop offset="98.0668%" stop-opacity="1" style="stop-color:rgb(142,83,77)"/><stop offset="100%" stop-opacity="1" style="stop-color:rgb(142,83,77)"/></linearGradient><path d=" M 112.965 346.683 C 114.074 346.683 115.184 346.955 116.181 347.497 L 193.723 392.523 C 194.635 393.02 195.187 393.934 195.201 394.971 C 195.216 396.007 194.688 396.937 193.792 397.456 L 177.066 407.148 C 175.422 408.102 173.379 408.097 171.736 407.14 L 93.957 361.736 C 93.035 361.198 92.512 360.239 92.558 359.173 C 92.604 358.106 93.207 357.196 94.171 356.739 L 110.089 347.327 C 110.996 346.896 111.98 346.683 112.965 346.683 Z  M 174.41 407.963 C 175.346 407.963 176.282 407.721 177.117 407.236 L 193.843 397.544 C 194.772 397.006 195.318 396.043 195.303 394.969 C 195.288 393.896 194.716 392.948 193.772 392.435 L 116.23 347.408 C 114.318 346.371 112.006 346.305 110.041 347.237 L 94.123 356.649 C 93.129 357.121 92.504 358.063 92.456 359.168 C 92.409 360.273 92.951 361.267 93.906 361.824 L 171.686 407.228 C 172.525 407.718 173.468 407.963 174.41 407.963 Z " fill-rule="evenodd" fill="url(#_lgradient_3)"/><path d=" M 177.121 406.686 L 193.823 396.953 C 195.765 395.821 195.72 393.001 193.742 391.933 L 117.142 347.444 C 115.235 346.415 112.952 346.357 110.998 347.291 L 95.085 356.7 C 92.979 358.063 93.441 361.235 95.442 362.397 L 171.74 406.69 C 173.404 407.656 175.459 407.654 177.121 406.686 Z " fill="rgb(250,255,255)"/><path d=" M 615.087 69.848 L 644.77 87.443 L 674.453 105.038 C 675.938 105.919 676.43 107.838 675.549 109.324 C 674.668 110.811 672.749 111.301 671.263 110.42 L 641.579 92.825 L 611.896 75.229 C 610.41 74.349 609.92 72.43 610.801 70.943 C 611.682 69.457 613.601 68.967 615.087 69.848 Z " fill="rgb(134,134,136)"/><path d=" M 610.809 70.932 C 611.691 69.455 613.604 68.969 615.087 69.848 L 644.086 87.038 L 644.789 87.454 L 673.041 104.201 L 674.486 105.074 C 675.401 105.635 675.926 106.594 675.968 107.593 C 675.987 108.044 675.91 108.501 675.729 108.934 C 675.674 109.073 675.607 109.21 675.528 109.343 C 674.698 110.744 672.82 111.165 671.334 110.284 L 641.65 92.688 L 611.998 75.111 C 611.622 74.889 611.282 74.58 611.044 74.247 C 610.336 73.279 610.203 71.982 610.809 70.932 Z " fill="rgb(133,133,135)"/><path d=" M 610.816 70.921 C 611.702 69.452 613.608 68.971 615.087 69.848 L 644.106 87.05 L 644.809 87.466 L 673.083 104.227 L 674.521 105.11 C 675.422 105.682 675.931 106.646 675.956 107.644 C 675.968 108.094 675.882 108.548 675.694 108.976 C 675.644 109.107 675.582 109.236 675.509 109.36 C 674.729 110.677 672.891 111.029 671.405 110.148 L 641.722 92.553 L 612.099 74.993 C 611.734 74.777 611.374 74.46 611.143 74.136 C 610.424 73.178 610.257 71.922 610.816 70.921 Z " fill="rgb(132,132,134)"/><path d=" M 610.824 70.91 C 611.712 69.45 613.612 68.974 615.087 69.848 L 644.126 87.062 L 644.828 87.478 L 673.124 104.251 L 674.555 105.146 C 675.443 105.729 675.937 106.698 675.943 107.695 C 675.947 108.145 675.854 108.595 675.66 109.017 C 675.614 109.141 675.558 109.262 675.488 109.378 C 674.759 110.609 672.962 110.894 671.476 110.013 L 641.793 92.417 L 612.2 74.875 C 611.847 74.666 611.465 74.339 611.241 74.025 C 610.512 73.077 610.312 71.861 610.824 70.91 Z " fill="rgb(131,131,133)"/><path d=" M 610.832 70.898 C 611.723 69.448 613.616 68.976 615.087 69.848 L 644.146 87.073 L 644.848 87.489 L 673.166 104.275 L 674.589 105.183 C 675.464 105.775 675.942 106.75 675.932 107.746 C 675.927 108.194 675.826 108.642 675.626 109.059 C 675.585 109.175 675.533 109.288 675.469 109.396 C 674.789 110.543 673.033 110.758 671.547 109.877 L 641.864 92.281 L 612.302 74.758 C 611.959 74.555 611.557 74.219 611.339 73.914 C 610.6 72.977 610.365 71.801 610.832 70.898 Z " fill="rgb(130,130,132)"/><path d=" M 610.84 70.888 C 611.732 69.446 613.62 68.979 615.087 69.848 L 644.166 87.085 L 644.867 87.5 L 673.207 104.3 L 674.623 105.219 C 675.485 105.822 675.948 106.802 675.919 107.797 C 675.906 108.244 675.798 108.688 675.592 109.1 C 675.556 109.208 675.508 109.313 675.448 109.414 C 674.819 110.476 673.104 110.622 671.618 109.741 L 641.936 92.146 L 612.402 74.64 C 612.071 74.443 611.647 74.098 611.437 73.804 C 610.687 72.875 610.419 71.74 610.84 70.888 Z " fill="rgb(129,129,131)"/><path d=" M 610.848 70.876 C 611.743 69.443 613.624 68.98 615.087 69.848 L 644.187 87.097 L 644.887 87.512 L 673.249 104.324 L 674.656 105.255 C 675.506 105.869 675.953 106.854 675.906 107.848 C 675.886 108.295 675.771 108.734 675.558 109.141 C 675.526 109.242 675.483 109.34 675.429 109.433 C 674.85 110.409 673.176 110.486 671.689 109.605 L 642.006 92.01 L 612.504 74.521 C 612.184 74.332 611.739 73.977 611.536 73.692 C 610.775 72.774 610.474 71.679 610.848 70.876 Z " fill="rgb(129,129,130)"/><path d=" M 610.856 70.865 C 611.753 69.441 613.628 68.982 615.087 69.847 L 644.207 87.109 L 644.905 87.523 L 673.29 104.349 C 673.396 104.411 674.639 105.189 674.69 105.291 C 675.527 105.916 675.959 106.906 675.895 107.898 C 675.866 108.345 675.742 108.781 675.523 109.183 C 675.497 109.275 675.459 109.365 675.408 109.45 C 674.88 110.342 673.247 110.351 671.761 109.47 L 642.077 91.874 L 612.605 74.403 C 612.296 74.221 611.83 73.856 611.634 73.581 C 610.863 72.674 610.527 71.618 610.856 70.865 Z " fill="rgb(128,128,129)"/><path d=" M 610.864 70.854 C 611.764 69.439 613.633 68.985 615.087 69.847 L 644.227 87.121 L 644.925 87.535 L 673.332 104.374 C 673.452 104.445 674.665 105.211 674.725 105.327 C 675.548 105.962 675.965 106.958 675.882 107.949 C 675.846 108.395 675.714 108.828 675.49 109.224 L 675.389 109.468 C 674.91 110.274 673.317 110.215 671.832 109.334 L 642.148 91.738 L 612.706 74.285 C 612.408 74.108 611.922 73.735 611.732 73.471 C 610.951 72.572 610.582 71.558 610.864 70.854 Z " fill="rgb(127,127,128)"/><path d=" M 610.872 70.843 C 611.773 69.437 613.637 68.987 615.087 69.847 L 644.247 87.133 L 644.944 87.546 L 673.373 104.398 C 673.509 104.479 674.691 105.232 674.759 105.363 C 675.568 106.009 675.971 107.011 675.869 108 C 675.825 108.445 675.687 108.875 675.456 109.266 L 675.368 109.486 C 674.94 110.208 673.389 110.079 671.903 109.198 L 642.22 91.603 L 612.808 74.168 C 612.521 73.997 612.013 73.614 611.831 73.359 C 611.039 72.472 610.636 71.497 610.872 70.843 Z " fill="rgb(126,126,127)"/><path d=" M 610.88 70.832 C 611.784 69.435 613.641 68.99 615.087 69.847 L 644.267 87.145 L 644.964 87.558 L 673.415 104.423 C 673.565 104.512 674.719 105.254 674.793 105.399 C 675.59 106.056 675.976 107.063 675.857 108.051 C 675.805 108.495 675.658 108.922 675.422 109.307 L 675.349 109.504 C 674.971 110.141 673.46 109.943 671.974 109.063 L 642.291 91.467 L 612.909 74.05 C 612.633 73.886 612.104 73.494 611.929 73.249 C 611.127 72.37 610.69 71.437 610.88 70.832 Z " fill="rgb(125,125,126)"/><path d=" M 610.888 70.82 C 611.795 69.433 613.645 68.992 615.087 69.847 L 644.287 87.156 L 644.983 87.569 L 673.456 104.447 C 673.622 104.546 674.745 105.275 674.826 105.436 C 675.61 106.103 675.981 107.114 675.845 108.102 C 675.784 108.545 675.63 108.968 675.388 109.348 L 675.328 109.521 C 675.001 110.074 673.531 109.808 672.045 108.927 L 642.362 91.331 L 613.01 73.932 C 612.745 73.774 612.195 73.373 612.027 73.138 C 611.215 72.27 610.744 71.376 610.888 70.82 Z " fill="rgb(124,124,125)"/><path d=" M 610.896 70.81 C 611.805 69.431 613.648 68.994 615.087 69.847 L 644.308 87.168 L 645.003 87.581 L 673.498 104.472 C 673.679 104.579 674.771 105.297 674.86 105.472 C 675.632 106.149 675.987 107.167 675.832 108.153 C 675.765 108.596 675.603 109.015 675.354 109.39 L 675.309 109.54 C 675.031 110.007 673.603 109.672 672.116 108.79 L 642.434 91.195 L 613.111 73.813 C 612.857 73.663 612.287 73.253 612.126 73.026 C 611.303 72.169 610.799 71.315 610.896 70.81 Z " fill="rgb(123,123,124)"/><path d=" M 610.903 70.798 C 611.815 69.428 613.652 68.997 615.087 69.847 L 644.327 87.181 L 645.022 87.592 L 673.539 104.496 C 673.735 104.612 674.798 105.318 674.895 105.508 C 675.652 106.196 675.993 107.219 675.82 108.204 C 675.744 108.646 675.574 109.062 675.319 109.431 L 675.288 109.558 C 675.062 109.94 673.674 109.536 672.187 108.654 L 642.504 91.06 L 613.213 73.695 C 612.97 73.552 612.378 73.132 612.224 72.916 C 611.391 72.067 610.853 71.255 610.903 70.798 Z " fill="rgb(122,122,123)"/><path d=" M 610.911 70.787 C 611.825 69.426 613.656 68.999 615.087 69.847 L 644.348 87.192 L 645.042 87.604 L 673.581 104.521 C 673.792 104.646 674.791 105.361 674.929 105.544 C 675.543 106.36 675.999 107.271 675.808 108.255 C 675.724 108.695 675.546 109.108 675.286 109.473 L 675.269 109.576 C 675.093 109.873 673.745 109.399 672.259 108.519 L 642.575 90.924 L 613.313 73.577 C 613.082 73.44 612.469 73.011 612.322 72.805 C 611.479 71.967 610.907 71.194 610.911 70.787 Z " fill="rgb(121,121,122)"/><path d=" M 610.919 70.776 C 611.836 69.424 613.66 69.001 615.087 69.847 L 644.367 87.204 L 645.062 87.615 L 673.622 104.546 C 673.849 104.68 674.817 105.383 674.963 105.58 C 675.569 106.4 676.004 107.323 675.796 108.306 C 675.703 108.746 675.519 109.155 675.252 109.514 L 675.248 109.594 C 675.123 109.806 673.815 109.264 672.33 108.383 L 642.646 90.787 L 613.415 73.46 C 613.194 73.329 612.561 72.891 612.421 72.694 C 611.566 71.865 610.961 71.133 610.919 70.776 Z " fill="rgb(120,120,121)"/><path d=" M 610.928 70.765 C 611.846 69.421 613.664 69.004 615.087 69.847 L 644.388 87.216 L 645.08 87.627 L 673.664 104.57 C 673.905 104.713 674.843 105.405 674.996 105.616 C 675.595 106.439 676.01 107.375 675.783 108.356 C 675.683 108.796 675.49 109.202 675.218 109.555 L 675.229 109.611 C 675.153 109.739 673.887 109.128 672.4 108.247 L 642.718 90.651 L 613.517 73.342 C 613.307 73.218 612.651 72.77 612.519 72.583 C 611.654 71.765 611.016 71.072 610.928 70.765 Z " fill="rgb(119,119,120)"/><path d=" M 610.936 70.754 C 611.856 69.419 613.668 69.006 615.087 69.847 L 644.408 87.228 L 645.1 87.639 L 673.705 104.595 C 673.962 104.747 674.869 105.427 675.03 105.652 C 675.621 106.479 676.016 107.427 675.771 108.407 C 675.662 108.846 675.462 109.248 675.184 109.597 L 675.209 109.63 C 675.184 109.672 673.958 108.992 672.472 108.111 L 642.789 90.516 L 613.617 73.224 C 613.419 73.106 612.743 72.648 612.617 72.473 C 611.742 71.664 611.069 71.012 610.936 70.754 Z " fill="rgb(118,118,119)"/><path d=" M 610.943 70.742 C 611.866 69.417 613.672 69.009 615.087 69.847 L 644.428 87.24 L 645.119 87.649 L 673.747 104.619 C 674.019 104.78 674.896 105.448 675.064 105.688 C 675.647 106.52 676.021 107.479 675.759 108.458 C 675.643 108.896 675.435 109.295 675.149 109.638 L 675.188 109.647 C 675.214 109.605 674.029 108.856 672.543 107.976 L 642.86 90.38 L 613.719 73.105 C 613.531 72.994 612.834 72.528 612.716 72.361 C 611.83 71.563 611.124 70.951 610.943 70.742 Z " fill="rgb(118,118,119)"/><path d=" M 610.951 70.731 C 611.877 69.415 613.676 69.011 615.087 69.847 L 644.448 87.252 L 645.139 87.661 L 673.788 104.645 C 674.075 104.813 674.923 105.469 675.099 105.725 C 675.675 106.56 676.026 107.531 675.746 108.509 C 675.622 108.946 675.406 109.342 675.115 109.68 L 675.169 109.666 C 675.244 109.538 674.101 108.721 672.614 107.84 L 642.932 90.244 L 613.82 72.987 C 613.644 72.883 612.926 72.407 612.813 72.25 C 611.918 71.462 611.178 70.891 610.951 70.731 Z " fill="rgb(117,117,118)"/><path d=" M 610.959 70.72 C 611.887 69.412 613.681 69.013 615.087 69.847 L 644.468 87.264 L 645.158 87.673 L 673.83 104.669 C 674.131 104.848 674.949 105.49 675.133 105.761 C 675.701 106.6 676.032 107.583 675.733 108.561 C 675.602 108.996 675.378 109.389 675.082 109.721 L 675.148 109.684 C 675.274 109.472 674.172 108.585 672.686 107.704 L 643.002 90.108 L 613.921 72.87 C 613.756 72.771 613.017 72.286 612.912 72.14 C 612.006 71.361 611.232 70.83 610.959 70.72 Z " fill="rgb(116,116,117)"/><path d=" M 610.967 70.709 C 611.897 69.41 613.685 69.016 615.087 69.847 L 644.488 87.275 L 645.178 87.685 L 673.871 104.693 C 674.187 104.881 674.977 105.511 675.166 105.796 C 675.728 106.641 676.038 107.636 675.722 108.611 C 675.581 109.047 675.351 109.436 675.048 109.763 L 675.129 109.701 C 675.305 109.404 674.243 108.449 672.757 107.568 L 643.073 89.973 L 614.022 72.752 C 613.868 72.66 613.108 72.166 613.01 72.028 C 612.094 71.26 611.286 70.77 610.967 70.709 Z " fill="rgb(115,115,116)"/><path d=" M 610.975 70.698 C 611.907 69.408 613.688 69.018 615.087 69.847 L 644.509 87.287 L 645.197 87.695 L 673.913 104.718 C 674.244 104.914 675.004 105.532 675.2 105.832 C 675.755 106.681 676.044 107.688 675.709 108.662 C 675.561 109.097 675.322 109.481 675.014 109.804 L 675.108 109.72 C 675.335 109.337 674.313 108.313 672.828 107.433 L 643.145 89.837 L 614.124 72.634 C 613.98 72.549 613.199 72.045 613.108 71.918 C 612.182 71.159 611.341 70.709 610.975 70.698 Z " fill="rgb(114,114,115)"/><path d=" M 610.982 70.687 C 611.918 69.405 613.692 69.021 615.087 69.847 L 644.528 87.299 L 645.217 87.707 L 673.954 104.742 C 674.301 104.948 675.031 105.553 675.234 105.868 C 675.782 106.722 676.049 107.739 675.696 108.713 C 675.541 109.146 675.294 109.528 674.979 109.845 L 675.089 109.737 C 675.365 109.271 674.385 108.178 672.898 107.297 L 643.216 89.701 L 614.225 72.516 C 614.093 72.438 613.291 71.925 613.207 71.807 C 612.271 71.058 611.395 70.648 610.982 70.687 Z " fill="rgb(113,113,114)"/><path d=" M 610.99 70.676 C 611.928 69.403 613.696 69.022 615.087 69.847 L 644.549 87.312 L 645.236 87.719 L 673.996 104.767 C 674.357 104.981 675.06 105.573 675.269 105.904 C 675.809 106.763 676.055 107.792 675.685 108.764 C 675.521 109.197 675.267 109.575 674.945 109.887 L 675.068 109.755 C 675.396 109.203 674.456 108.042 672.97 107.161 L 643.287 89.565 L 614.326 72.397 C 614.205 72.326 613.382 71.804 613.305 71.695 C 612.358 70.957 611.449 70.587 610.99 70.676 Z " fill="rgb(112,112,113)"/><path d=" M 610.999 70.664 C 611.938 69.401 613.7 69.024 615.087 69.847 L 644.568 87.323 L 645.255 87.73 L 674.037 104.792 C 674.414 105.015 675.088 105.594 675.302 105.94 C 675.836 106.804 676.061 107.844 675.672 108.814 C 675.5 109.247 675.238 109.622 674.911 109.928 L 675.049 109.773 C 675.426 109.137 674.527 107.906 673.041 107.025 L 643.358 89.43 L 614.428 72.28 C 614.317 72.215 613.474 71.683 613.403 71.585 C 612.446 70.856 611.503 70.526 610.999 70.664 Z " fill="rgb(111,111,112)"/><path d=" M 611.007 70.653 C 611.948 69.399 613.704 69.027 615.087 69.847 L 644.589 87.335 L 645.274 87.741 L 674.079 104.816 C 674.471 105.049 675.116 105.614 675.336 105.977 C 675.863 106.846 676.066 107.896 675.66 108.865 C 675.479 109.297 675.21 109.669 674.877 109.97 L 675.028 109.791 C 675.456 109.069 674.599 107.771 673.112 106.889 L 643.43 89.294 L 614.529 72.162 C 614.43 72.104 613.564 71.563 613.502 71.474 C 612.534 70.755 611.558 70.466 611.007 70.653 Z " fill="rgb(110,110,111)"/><path d=" M 611.015 70.643 C 611.959 69.396 613.708 69.029 615.087 69.847 L 644.608 87.347 L 645.294 87.753 L 674.121 104.841 C 674.527 105.082 675.145 105.635 675.37 106.013 C 675.891 106.887 676.072 107.948 675.647 108.916 C 675.459 109.348 675.183 109.715 674.844 110.011 L 675.009 109.81 C 675.486 109.002 674.67 107.634 673.184 106.753 L 643.5 89.158 L 614.63 72.044 L 613.6 71.363 C 612.622 70.654 611.611 70.405 611.015 70.643 Z " fill="rgb(109,109,110)"/><path d=" M 611.022 70.631 C 611.969 69.395 613.712 69.032 615.087 69.847 L 644.629 87.358 L 645.313 87.765 L 674.162 104.865 C 674.584 105.115 675.174 105.655 675.404 106.049 C 675.919 106.929 676.077 108 675.635 108.967 C 675.439 109.397 675.154 109.762 674.81 110.052 L 674.988 109.827 C 675.517 108.936 674.741 107.498 673.255 106.617 L 643.571 89.021 L 614.731 71.926 L 613.698 71.252 C 612.71 70.554 611.666 70.345 611.022 70.631 Z " fill="rgb(108,108,109)"/><path d=" M 611.03 70.62 C 611.979 69.393 613.716 69.034 615.087 69.847 L 644.649 87.37 L 645.333 87.776 L 674.204 104.89 C 674.641 105.149 675.203 105.675 675.438 106.085 C 675.946 106.971 676.083 108.052 675.623 109.019 C 675.419 109.447 675.126 109.809 674.775 110.094 C 674.848 110.018 674.914 109.937 674.969 109.845 C 675.548 108.868 674.812 107.362 673.326 106.481 L 643.643 88.886 L 614.833 71.808 L 613.797 71.142 C 612.798 70.452 611.72 70.284 611.03 70.62 Z " fill="rgb(107,107,108)"/><path d=" M 611.038 70.608 C 611.989 69.39 613.72 69.036 615.087 69.847 L 644.669 87.383 L 645.353 87.787 L 674.245 104.915 C 674.697 105.183 675.232 105.695 675.472 106.121 C 675.974 107.013 676.089 108.104 675.61 109.069 C 675.398 109.498 675.099 109.855 674.741 110.135 C 674.818 110.052 674.89 109.963 674.948 109.863 C 675.578 108.802 674.883 107.227 673.396 106.346 L 643.714 88.75 L 614.934 71.69 L 613.895 71.03 C 612.886 70.352 611.774 70.224 611.038 70.608 Z " fill="rgb(107,107,107)"/><path d=" M 611.046 70.598 C 612 69.388 613.724 69.039 615.087 69.847 L 644.689 87.395 L 645.372 87.799 L 674.287 104.939 C 674.754 105.216 675.262 105.715 675.506 106.157 C 676.002 107.055 676.095 108.156 675.598 109.12 C 675.378 109.548 675.07 109.902 674.707 110.177 C 674.789 110.085 674.864 109.988 674.929 109.881 C 675.608 108.734 674.954 107.091 673.468 106.21 L 643.785 88.614 L 615.035 71.572 L 613.993 70.919 C 612.974 70.25 611.828 70.163 611.046 70.598 Z " fill="rgb(106,106,106)"/><path d=" M 611.054 70.586 C 612.01 69.386 613.729 69.041 615.087 69.847 L 644.709 87.406 L 645.392 87.811 L 674.328 104.964 C 674.811 105.25 675.291 105.734 675.54 106.193 C 676.03 107.098 676.1 108.208 675.586 109.171 C 675.357 109.598 675.042 109.948 674.673 110.218 C 674.76 110.119 674.84 110.015 674.908 109.899 C 675.639 108.668 675.025 106.955 673.539 106.074 L 643.856 88.479 L 615.137 71.454 L 614.092 70.809 C 613.062 70.149 611.882 70.102 611.054 70.586 Z " fill="rgb(105,105,105)"/><path d=" M 611.062 70.575 C 612.021 69.384 613.732 69.044 615.087 69.847 L 644.729 87.418 L 645.411 87.822 L 674.37 104.988 C 674.867 105.283 675.321 105.754 675.574 106.229 C 676.058 107.14 676.105 108.261 675.573 109.222 C 675.337 109.648 675.015 109.995 674.64 110.259 C 674.73 110.153 674.815 110.041 674.889 109.917 C 675.669 108.601 675.097 106.819 673.61 105.938 L 643.928 88.343 L 615.237 71.336 L 614.189 70.697 C 613.149 70.049 611.937 70.041 611.062 70.575 Z " fill="rgb(104,104,104)"/><path d=" M 611.07 70.564 C 612.03 69.381 613.736 69.046 615.087 69.847 L 644.75 87.43 L 645.431 87.834 L 674.411 105.013 C 674.924 105.316 675.352 105.773 675.608 106.266 C 676.086 107.183 676.111 108.313 675.561 109.272 C 675.317 109.698 674.986 110.042 674.605 110.301 C 674.7 110.187 674.79 110.066 674.868 109.935 C 675.699 108.533 675.168 106.684 673.682 105.803 L 643.998 88.207 L 615.339 71.218 L 614.288 70.587 C 613.237 69.947 611.99 69.98 611.07 70.564 Z " fill="rgb(103,103,103)"/><path d=" M 674.849 109.953 C 675.729 108.467 675.239 106.548 673.753 105.667 L 644.069 88.071 L 614.387 70.476 C 613.325 69.847 612.045 69.92 611.078 70.553 C 612.041 69.379 613.74 69.048 615.087 69.847 L 644.77 87.442 L 674.453 105.037 C 675.938 105.918 676.43 107.837 675.549 109.323 C 675.297 109.748 674.958 110.089 674.571 110.342 C 674.671 110.221 674.766 110.093 674.849 109.953 Z " fill="rgb(102,102,102)"/></g></g></g></svg>